# xmcd
#
# Track frame offsets:
#	150
#	10921
#	23087
#	31518
#	43676
#	57052
#	66993
#	80075
#	91813
#	104691
#	116900
#	128916
#	143969
#	154350
#	167978
#	180434
#	192037
#	204135
#	214261
#	225939
#
# Disc length: 3186 seconds
#
# Revision: 1
# Processed by: cddbd v1.5.2PL0 Copyright (c) Steve Scherf et al.
# Submitted via: EZCDAudioConverter 2.8.0.1
#
DISCID=0c0c7014
DTITLE=Stoney Edwards - A Country Singer+Down Home In The Country
DYEAR=1971
DGENRE=Country
TTITLE0=Poor Folks Stick Together
TTITLE1=A Two Dollar Toy
TTITLE2=An Old Mule's Hip
TTITLE3=Please Bring The Bottle
TTITLE4=Mama's Love
TTITLE5=The Cute Waitress
TTITLE6=Something New And Different
TTITLE7=I Bought The Shoes That Just Walked Out Of Me
TTITLE8=A Few Of The Reasons
TTITLE9=You Stayed Long Enough (To Make Me Love You)
TTITLE10=Dixie Boy
TTITLE11=Mama's Old Quilt
TTITLE12=Saturday Night
TTITLE13=Our Garden Of Love
TTITLE14=Good To Have You Home
TTITLE15=You'll Remember Me
TTITLE16=Beyond A Shadow Of A Doubt
TTITLE17=The Fishin' Song
TTITLE18=Odd-Job Dollar-Bill Man
TTITLE19=Don't Be Angry
EXTD=
EXTT0=
EXTT1=
EXTT2=
EXTT3=
EXTT4=
EXTT5=
EXTT6=
EXTT7=
EXTT8=
EXTT9=
EXTT10=
EXTT11=
EXTT12=
EXTT13=
EXTT14=
EXTT15=
EXTT16=
EXTT17=
EXTT18=
EXTT19=
PLAYORDER=
